<svg xmlns="http://www.w3.org/2000/svg" viewBox="0 0 640 512"><!--!Font Awesome Pro 6.5.1 by @fontawesome - https://fontawesome.com License - https://fontawesome.com/license (Commercial License) Copyright 2024 Fonticons, Inc.--><path d="M1.7 3C4.5-.4 9.5-1 13 1.7l623.1 496c4.3 2.8 4.9 7.8 2.2 10.4c-2.8 4.3-7.8 4.9-11.3 2.2L3 14.3C-.4 11.5-1 6.5 1.7 3zM64 145.6l16 12.6L80 176l22.5 0 20.3 16L80 192l0 128 144 0 0-48.1 16 12.6 0 35.4 44.9 0 20.3 16L240 336l0 128 160 0 0-53.1 16 12.6 0 40.5 51.3 0 20.3 16L128 480c-35.3 0-64-28.7-64-64l0-270.4zM80 336l0 80c0 26.5 21.5 48 48 48l96 0 0-128L80 336zM152.5 32L512 32c35.3 0 64 28.7 64 64l0 270.4-16-12.6 0-17.7-22.5 0-20.3-16 42.7 0 0-128-144 0 0 48.1-16-12.6 0-35.4-44.9 0-20.3-16 65.1 0 0-128L240 48l0 53.1L224 88.5 224 48l-51.3 0L152.5 32zM416 48l0 128 144 0 0-80c0-26.5-21.5-48-48-48l-96 0z"/></svg>